# xmcd
#
# Track frame offsets:
# 150
# 37654
# 60170
# 85636
# 101464
# 135298
# 153912
#
# Disc length: 3445 seconds
#
#
# Revision: 0
# Processed by: cddbd v1.5.2PL0 Copyright (c) Steve Scherf et al.
# Submitted via: Nero 7, 11, 10, 0 
#
DISCID=3a0d7307
DTITLE=The Silvertones - Live - Hot In The Hole
DYEAR=2002
DGENRE=Blues
TTITLE0=Silvertones Stomp - Sugar Mama
TTITLE1=Hucklebuck With Jimmy
TTITLE2=Let Me Be
TTITLE3=Next Time You See Me
TTITLE4=I Got Troubles
TTITLE5=Apache
TTITLE6=Medley Down By The Coast - I Had A Lover (Drivin' Wheel) - 7 Nights To Rock
EXTD=
EXTT0=Silvertones Stomp - Sugar Mama
EXTT1=Hucklebuck With Jimmy
EXTT2=Let Me Be
EXTT3=Next Time You See Me
EXTT4=I Got Troubles
EXTT5=Apache
EXTT6=Medley Down By The Coast - I Had A Lover (Drivin' Wheel) - 7 Nights To Rock
PLAYORDER=
